<svg width="294" height="731" viewBox="0 0 294 731" fill="none" xmlns="http://www.w3.org/2000/svg">
<path d="M787.001 651H716.701C711.901 651 707.401 653.1 704.401 656.8C697.401 665.3 689.901 673.5 682.001 681.3C649.69 713.643 611.418 739.418 569.301 757.2C525.666 775.63 478.768 785.085 431.401 785C383.501 785 337.101 775.6 293.501 757.2C251.384 739.418 213.111 713.643 180.801 681.3C148.432 649.066 122.622 610.861 104.801 568.8C86.3008 525.2 77.0008 478.9 77.0008 431C77.0008 383.1 86.4008 336.8 104.801 293.2C122.601 251.1 148.201 213.2 180.801 180.7C213.401 148.2 251.301 122.6 293.501 104.8C337.101 86.4 383.501 77 431.401 77C479.301 77 525.701 86.3 569.301 104.8C611.501 122.6 649.401 148.2 682.001 180.7C689.901 188.6 697.301 196.8 704.401 205.2C707.401 208.9 712.001 211 716.701 211H787.001C793.301 211 797.201 204 793.701 198.7C717.001 79.5001 582.801 0.600049 430.301 1.00005C190.701 1.60005 -1.39924 196.1 1.00076 435.4C3.40076 670.9 195.201 861 431.401 861C583.501 861 717.101 782.2 793.701 663.3C797.101 658 793.301 651 787.001 651ZM875.901 424.7L734.001 312.7C728.701 308.5 721.001 312.3 721.001 319V395H407.001C402.601 395 399.001 398.6 399.001 403V459C399.001 463.4 402.601 467 407.001 467H721.001V543C721.001 549.7 728.801 553.5 734.001 549.3L875.901 437.3C876.857 436.552 877.63 435.596 878.162 434.504C878.694 433.413 878.97 432.214 878.97 431C878.97 429.786 878.694 428.588 878.162 427.496C877.63 426.405 876.857 425.448 875.901 424.7Z" fill="#F8F8F8"/>
</svg>
