<svg width="339" height="74" viewBox="0 0 339 74" fill="none" xmlns="http://www.w3.org/2000/svg">
<rect width="339" height="74" rx="5" fill="black"/>
<mask id="mask0_347_88" style="mask-type:alpha" maskUnits="userSpaceOnUse" x="0" y="0" width="339" height="74">
<rect width="339" height="74" rx="5" fill="black"/>
</mask>
<g mask="url(#mask0_347_88)">
<circle cx="305.5" cy="42.5" r="78" stroke="#333333"/>
<circle cx="284.5" cy="47.5" r="36" stroke="#333333"/>
<circle cx="30.5" cy="25.5" r="48" stroke="#333333"/>
<circle cx="36.5" cy="31.5" r="22" stroke="#333333"/>
<circle cx="18.5" cy="15.5" r="10" stroke="#333333"/>
</g>
<path d="M127.219 44.838V33.444H135.679V35.784H130.099V37.944H134.941V40.284H130.099V42.498H135.679V44.838H127.219ZM146.26 39.024L149.59 44.838H145.99L143.92 40.806H143.866L141.796 44.838H138.196L141.526 39.024V38.934L138.412 33.444H141.958L143.866 37.404H143.92L145.828 33.444H149.374L146.26 38.934V39.024ZM155.689 44.838H152.809V33.444H157.885C159.025 33.444 159.937 33.582 160.621 33.858C161.305 34.134 161.797 34.584 162.097 35.208C162.397 35.832 162.547 36.678 162.547 37.746C162.547 38.754 162.397 39.576 162.097 40.212C161.797 40.836 161.305 41.298 160.621 41.598C159.937 41.898 159.025 42.048 157.885 42.048H155.689V44.838ZM157.417 35.802H155.689V39.69H157.417C158.269 39.69 158.839 39.546 159.127 39.258C159.415 38.97 159.559 38.466 159.559 37.746C159.559 37.062 159.415 36.57 159.127 36.27C158.839 35.958 158.269 35.802 157.417 35.802ZM174.157 42.39V44.838H165.877V33.444H168.757V42.39H174.157ZM176.862 39.132C176.862 37.68 177.024 36.528 177.348 35.676C177.684 34.824 178.254 34.212 179.058 33.84C179.874 33.468 181.008 33.282 182.46 33.282C183.552 33.282 184.458 33.384 185.178 33.588C185.898 33.792 186.468 34.122 186.888 34.578C187.308 35.034 187.602 35.64 187.77 36.396C187.95 37.14 188.04 38.052 188.04 39.132C188.04 40.224 187.95 41.148 187.77 41.904C187.602 42.648 187.308 43.248 186.888 43.704C186.468 44.16 185.898 44.49 185.178 44.694C184.458 44.898 183.552 45 182.46 45C181.368 45 180.462 44.898 179.742 44.694C179.022 44.49 178.452 44.16 178.032 43.704C177.612 43.248 177.312 42.648 177.132 41.904C176.952 41.148 176.862 40.224 176.862 39.132ZM182.46 42.48C183.228 42.48 183.804 42.384 184.188 42.192C184.572 42 184.83 41.664 184.962 41.184C185.094 40.692 185.16 40.008 185.16 39.132C185.16 38.268 185.094 37.596 184.962 37.116C184.83 36.636 184.572 36.3 184.188 36.108C183.804 35.904 183.228 35.802 182.46 35.802C181.704 35.802 181.128 35.904 180.732 36.108C180.348 36.3 180.084 36.636 179.94 37.116C179.808 37.596 179.742 38.268 179.742 39.132C179.742 40.008 179.808 40.692 179.94 41.184C180.084 41.664 180.348 42 180.732 42.192C181.128 42.384 181.704 42.48 182.46 42.48ZM194.523 44.838H191.643V33.444H197.079C198.507 33.444 199.545 33.768 200.193 34.416C200.853 35.052 201.183 35.994 201.183 37.242C201.183 38.178 200.949 38.982 200.481 39.654C200.013 40.314 199.395 40.728 198.627 40.896L198.609 40.95C198.909 41.142 199.239 41.46 199.599 41.904C199.959 42.348 200.313 42.834 200.661 43.362C201.021 43.878 201.339 44.364 201.615 44.82V44.838H198.267L196.323 41.958C196.155 41.706 196.017 41.526 195.909 41.418C195.813 41.31 195.693 41.244 195.549 41.22C195.417 41.196 195.201 41.184 194.901 41.184H194.523V44.838ZM196.611 35.784H194.523V38.844H196.611C197.211 38.844 197.625 38.724 197.853 38.484C198.093 38.244 198.213 37.854 198.213 37.314C198.213 36.774 198.093 36.384 197.853 36.144C197.625 35.904 197.211 35.784 196.611 35.784ZM205.044 44.838V33.444H213.504V35.784H207.924V37.944H212.766V40.284H207.924V42.498H213.504V44.838H205.044Z" fill="white"/>
<path d="M234 37H261" stroke="#333333" stroke-linecap="round"/>
<path d="M78 37L105 37" stroke="#333333" stroke-linecap="round"/>
<path d="M59 37L69 37" stroke="#333333" stroke-linecap="round"/>
<path d="M270 37L280 37" stroke="#333333" stroke-linecap="round"/>
<path d="M290 37L295 37" stroke="#333333" stroke-linecap="round"/>
<path d="M44 37L49 37" stroke="#333333" stroke-linecap="round"/>
</svg>
