<svg width="26" height="33" viewBox="0 0 26 33" fill="none" xmlns="http://www.w3.org/2000/svg">
<path d="M2.6 5.73375V23.375C2.59975 25.1205 3.22721 26.8007 4.3551 28.0749C5.483 29.349 7.02689 30.1217 8.6736 30.2362L9.1 30.25H20.5764C20.3076 31.0541 19.8097 31.7504 19.1513 32.2429C18.4929 32.7354 17.7064 32.9999 16.9 33H7.8C5.73131 33 3.74735 32.1308 2.28457 30.5836C0.821784 29.0365 5.36215e-07 26.938 5.36215e-07 24.75V9.625C-0.000422448 8.7716 0.249412 7.93907 0.715073 7.24215C1.18073 6.54523 1.8393 6.01822 2.6 5.73375ZM22.1 0C23.1343 0 24.1263 0.434597 24.8577 1.20818C25.5891 1.98177 26 3.03098 26 4.125V23.375C26 24.469 25.5891 25.5182 24.8577 26.2918C24.1263 27.0654 23.1343 27.5 22.1 27.5H9.1C8.06566 27.5 7.07368 27.0654 6.34228 26.2918C5.61089 25.5182 5.2 24.469 5.2 23.375V4.125C5.2 3.03098 5.61089 1.98177 6.34228 1.20818C7.07368 0.434597 8.06566 0 9.1 0H22.1Z" fill="black"/>
</svg>
