<svg width="281" height="25" viewBox="0 0 281 25" fill="none" xmlns="http://www.w3.org/2000/svg">
<path d="M0.68 19.748V2.024H8.436C9.98533 2.024 11.2827 2.15467 12.328 2.416C13.3733 2.65867 14.2133 3.09733 14.848 3.732C15.4827 4.36667 15.94 5.25333 16.22 6.392C16.5 7.512 16.64 8.95867 16.64 10.732C16.64 12.58 16.5 14.092 16.22 15.268C15.94 16.444 15.4827 17.3587 14.848 18.012C14.2133 18.6653 13.3733 19.1227 12.328 19.384C11.2827 19.6267 9.98533 19.748 8.436 19.748H0.68ZM7.792 5.804H5.16V15.968H7.792C8.87467 15.968 9.724 15.8467 10.34 15.604C10.9747 15.3613 11.4227 14.8667 11.684 14.12C11.964 13.3733 12.104 12.244 12.104 10.732C12.104 9.29467 11.964 8.23067 11.684 7.54C11.4227 6.83067 10.9747 6.364 10.34 6.14C9.724 5.916 8.87467 5.804 7.792 5.804ZM23.6658 1.044C23.7218 1.716 23.7498 2.276 23.7498 2.724C23.7498 2.98533 23.7405 3.256 23.7218 3.536C23.7218 3.79733 23.7031 4.096 23.6658 4.432C23.2738 4.50667 22.8911 4.56267 22.5178 4.6C22.1445 4.63733 21.7711 4.656 21.3978 4.656C21.0431 4.656 20.6791 4.63733 20.3058 4.6C19.9511 4.56267 19.5871 4.50667 19.2138 4.432C19.1765 4.11467 19.1485 3.82533 19.1298 3.564C19.1111 3.284 19.1018 3.01333 19.1018 2.752C19.1018 2.50933 19.1111 2.248 19.1298 1.968C19.1485 1.688 19.1765 1.38 19.2138 1.044C19.5871 0.950665 19.9605 0.894666 20.3338 0.875999C20.7258 0.838665 21.1085 0.819998 21.4818 0.819998C21.8365 0.819998 22.1911 0.838665 22.5458 0.875999C22.9191 0.894666 23.2925 0.950665 23.6658 1.044ZM23.6658 19.748H19.1858V6.112H23.6658V19.748ZM26.1499 15.884C27.6059 16.2947 29.2206 16.5 30.9939 16.5C31.8526 16.5 32.4966 16.472 32.9259 16.416C33.3553 16.36 33.6446 16.2667 33.7939 16.136C33.9433 16.0053 34.0179 15.828 34.0179 15.604C34.0179 15.2867 33.8966 15.0907 33.6539 15.016C33.4299 14.9413 32.9726 14.8387 32.2819 14.708L30.0699 14.288C28.6513 14.008 27.6246 13.5693 26.9899 12.972C26.3739 12.356 26.0659 11.4413 26.0659 10.228C26.0659 8.58533 26.5513 7.46533 27.5219 6.868C28.5113 6.27067 30.0793 5.972 32.2259 5.972C33.5139 5.972 34.6433 6.04667 35.6139 6.196C36.6033 6.32667 37.4246 6.49467 38.0779 6.7L38.0219 10.088L37.9379 10.172C36.4259 9.68667 34.7739 9.444 32.9819 9.444C32.1046 9.444 31.4886 9.50933 31.1339 9.64C30.7979 9.752 30.6299 9.98533 30.6299 10.34C30.6299 10.5267 30.6766 10.676 30.7699 10.788C30.8819 10.9 31.1246 11.012 31.4979 11.124C31.8713 11.2173 32.4593 11.3387 33.2619 11.488L35.3059 11.88C36.4446 12.1227 37.2846 12.524 37.8259 13.084C38.3673 13.644 38.6379 14.5307 38.6379 15.744C38.6379 16.808 38.4419 17.6573 38.0499 18.292C37.6579 18.908 36.9953 19.3467 36.0619 19.608C35.1473 19.8693 33.8779 20 32.2539 20C31.0219 20 29.8833 19.944 28.8379 19.832C27.8113 19.7013 26.8873 19.552 26.0659 19.384V15.94L26.1499 15.884ZM51.624 15.8V19.44C51.1574 19.6267 50.4667 19.7667 49.552 19.86C48.6374 19.9533 47.6667 20 46.64 20C45.1654 20 43.9334 19.7947 42.944 19.384C41.9734 18.9733 41.2454 18.264 40.76 17.256C40.2934 16.248 40.0507 14.848 40.032 13.056C40.032 11.208 40.284 9.77067 40.788 8.744C41.3107 7.71733 42.0667 6.99867 43.056 6.588C44.0454 6.17733 45.2307 5.972 46.612 5.972C47.4334 5.972 48.3014 6.028 49.216 6.14C50.1307 6.252 50.8774 6.40133 51.456 6.588L51.484 10.34L51.4 10.396C50.84 10.284 50.2427 10.2 49.608 10.144C48.9734 10.088 48.348 10.06 47.732 10.06C46.4814 10.06 45.6134 10.2933 45.128 10.76C44.6427 11.2267 44.4 12.0107 44.4 13.112C44.4 13.952 44.5027 14.5773 44.708 14.988C44.9134 15.3987 45.2587 15.6693 45.744 15.8C46.2294 15.9307 46.892 15.996 47.732 15.996C48.3854 15.996 49.0107 15.968 49.608 15.912C50.2054 15.856 50.84 15.7907 51.512 15.716L51.624 15.8ZM53.157 13.028C53.157 10.5267 53.689 8.72533 54.753 7.624C55.817 6.52267 57.6184 5.972 60.157 5.972C61.8557 5.972 63.2184 6.21467 64.245 6.7C65.2717 7.18533 66.009 7.95067 66.457 8.996C66.9237 10.0227 67.157 11.3667 67.157 13.028C67.157 14.6707 66.9237 16.0053 66.457 17.032C66.009 18.0587 65.2717 18.8147 64.245 19.3C63.2184 19.7667 61.8557 20 60.157 20C57.6184 20 55.817 19.4587 54.753 18.376C53.689 17.2747 53.157 15.492 53.157 13.028ZM60.157 16.164C61.2397 16.164 61.9677 15.9307 62.341 15.464C62.733 14.9787 62.929 14.1387 62.929 12.944C62.929 11.8053 62.733 10.9933 62.341 10.508C61.9677 10.004 61.2397 9.752 60.157 9.752C59.1117 9.752 58.3837 10.004 57.973 10.508C57.581 10.9933 57.385 11.8053 57.385 12.944C57.385 14.1387 57.581 14.9787 57.973 15.464C58.3837 15.9307 59.1117 16.164 60.157 16.164ZM82.3836 6.196L77.9316 19.748H72.3316L68.1316 6.168V6.112H73.1716C73.5636 7.568 73.9276 9.14533 74.2636 10.844C74.6182 12.5427 74.9356 14.176 75.2156 15.744H75.3276C75.6076 14.176 75.9156 12.5427 76.2516 10.844C76.6062 9.14533 76.9796 7.568 77.3716 6.112H82.3836V6.196ZM96.3639 19.3C95.8412 19.4867 95.1132 19.6547 94.1799 19.804C93.2652 19.9347 92.1732 20 90.9039 20C89.2985 20 87.9265 19.7947 86.7879 19.384C85.6679 18.9547 84.8185 18.236 84.2399 17.228C83.6612 16.2013 83.3719 14.7827 83.3719 12.972C83.3719 10.508 83.9319 8.72533 85.0519 7.624C86.1905 6.52267 87.9452 5.972 90.3159 5.972C92.0145 5.972 93.3492 6.21467 94.3199 6.7C95.3092 7.18533 96.0092 7.876 96.4199 8.772C96.8492 9.64933 97.0639 10.6947 97.0639 11.908C97.0639 12.2627 97.0452 12.6453 97.0079 13.056C96.9892 13.4667 96.9425 13.868 96.8679 14.26L96.7559 14.372H87.5439C87.6745 15.1933 88.0572 15.7347 88.6919 15.996C89.3452 16.2573 90.3999 16.388 91.8559 16.388C92.8265 16.388 93.6292 16.3693 94.2639 16.332C94.9172 16.276 95.5799 16.2013 96.2519 16.108L96.3639 16.192V19.3ZM93.1719 11.432C93.1719 10.984 93.0972 10.6013 92.9479 10.284C92.8172 9.948 92.5465 9.696 92.1359 9.528C91.7252 9.34133 91.1185 9.248 90.3159 9.248C89.1399 9.248 88.3652 9.45333 87.9919 9.864C87.6372 10.256 87.4599 10.7787 87.4599 11.432H93.1719ZM103.926 19.748H99.4456V6.112H103.086L103.45 8.912H103.534C103.702 7.86667 104.103 7.12 104.738 6.672C105.372 6.20533 106.315 5.972 107.566 5.972C108.07 5.972 108.527 6 108.938 6.056C109.348 6.09333 109.694 6.13067 109.974 6.168V10.536L109.918 10.592C109.619 10.5173 109.274 10.452 108.882 10.396C108.508 10.34 108.079 10.312 107.594 10.312C106.903 10.312 106.278 10.424 105.718 10.648C105.176 10.872 104.747 11.3107 104.43 11.964C104.131 12.5987 103.982 13.5507 103.982 14.82L103.926 19.748ZM110.519 22.604C110.631 22.6227 110.762 22.632 110.911 22.632C111.471 22.632 111.891 22.5293 112.171 22.324C112.451 22.1373 112.591 21.8013 112.591 21.316L112.563 21.288C112.246 21.4747 111.789 21.568 111.191 21.568C109.735 21.568 109.007 20.8773 109.007 19.496C109.007 18.7867 109.185 18.2547 109.539 17.9C109.913 17.5267 110.585 17.34 111.555 17.34C112.545 17.34 113.245 17.62 113.655 18.18C114.085 18.74 114.299 19.5427 114.299 20.588C114.299 21.9507 114.019 22.8933 113.459 23.416C112.899 23.9387 112.106 24.2 111.079 24.2C110.986 24.2 110.893 24.1907 110.799 24.172C110.706 24.172 110.603 24.1627 110.491 24.144V22.632L110.519 22.604ZM140.815 19.664V19.748H136.055C135.924 19.3 135.765 18.7867 135.579 18.208C135.411 17.6293 135.224 17.0133 135.019 16.36H128.971C128.597 17.6667 128.252 18.796 127.935 19.748H123.175V19.692L128.915 2.024H135.075L140.815 19.664ZM131.939 5.216C131.752 6.168 131.481 7.32533 131.127 8.688C130.772 10.0507 130.399 11.4413 130.007 12.86H134.011C133.6 11.4413 133.217 10.0507 132.863 8.688C132.508 7.32533 132.237 6.168 132.051 5.216H131.939ZM159.725 5.972C161.107 5.972 162.199 6.42933 163.001 7.344C163.823 8.25867 164.233 9.84533 164.233 12.104V19.748H159.753L159.725 12.664C159.725 11.7493 159.585 11.0867 159.305 10.676C159.044 10.2653 158.521 10.06 157.737 10.06C156.953 10.06 156.421 10.2653 156.141 10.676C155.88 11.0867 155.749 11.7493 155.749 12.664V19.748H151.269L151.241 12.664C151.241 11.7493 151.101 11.0867 150.821 10.676C150.56 10.2653 150.037 10.06 149.253 10.06C148.469 10.06 147.937 10.2653 147.657 10.676C147.396 11.0867 147.265 11.7493 147.265 12.664V19.748H142.785V6.112H147.041L147.265 8.604H147.349C147.592 7.78267 148.012 7.13867 148.609 6.672C149.225 6.20533 150.093 5.972 151.213 5.972C152.333 5.972 153.211 6.20533 153.845 6.672C154.499 7.13867 154.919 7.78267 155.105 8.604H155.189C155.432 7.764 155.899 7.12 156.589 6.672C157.299 6.20533 158.344 5.972 159.725 5.972ZM166.697 15.884C168.153 16.2947 169.767 16.5 171.541 16.5C172.399 16.5 173.043 16.472 173.473 16.416C173.902 16.36 174.191 16.2667 174.341 16.136C174.49 16.0053 174.565 15.828 174.565 15.604C174.565 15.2867 174.443 15.0907 174.201 15.016C173.977 14.9413 173.519 14.8387 172.829 14.708L170.617 14.288C169.198 14.008 168.171 13.5693 167.537 12.972C166.921 12.356 166.613 11.4413 166.613 10.228C166.613 8.58533 167.098 7.46533 168.069 6.868C169.058 6.27067 170.626 5.972 172.773 5.972C174.061 5.972 175.19 6.04667 176.161 6.196C177.15 6.32667 177.971 6.49467 178.625 6.7L178.569 10.088L178.485 10.172C176.973 9.68667 175.321 9.444 173.529 9.444C172.651 9.444 172.035 9.50933 171.681 9.64C171.345 9.752 171.177 9.98533 171.177 10.34C171.177 10.5267 171.223 10.676 171.317 10.788C171.429 10.9 171.671 11.012 172.045 11.124C172.418 11.2173 173.006 11.3387 173.809 11.488L175.853 11.88C176.991 12.1227 177.831 12.524 178.373 13.084C178.914 13.644 179.185 14.5307 179.185 15.744C179.185 16.808 178.989 17.6573 178.597 18.292C178.205 18.908 177.542 19.3467 176.609 19.608C175.694 19.8693 174.425 20 172.801 20C171.569 20 170.43 19.944 169.385 19.832C168.358 19.7013 167.434 19.552 166.613 19.384V15.94L166.697 15.884ZM181.839 15.66V9.78H180.159V6.14H182.259L183.099 2.808H186.319V6.14H189.371V9.78H186.319V14.68C186.319 15.2027 186.384 15.5667 186.515 15.772C186.646 15.9587 186.944 16.052 187.411 16.052C187.71 16.052 188.027 16.0427 188.363 16.024C188.699 15.9867 189.035 15.9493 189.371 15.912L189.455 15.968V19.608C188.559 19.8693 187.374 20 185.899 20C184.424 20 183.379 19.664 182.763 18.992C182.147 18.32 181.839 17.2093 181.839 15.66ZM203.989 19.3C203.466 19.4867 202.738 19.6547 201.805 19.804C200.89 19.9347 199.798 20 198.529 20C196.924 20 195.552 19.7947 194.413 19.384C193.293 18.9547 192.444 18.236 191.865 17.228C191.286 16.2013 190.997 14.7827 190.997 12.972C190.997 10.508 191.557 8.72533 192.677 7.624C193.816 6.52267 195.57 5.972 197.941 5.972C199.64 5.972 200.974 6.21467 201.945 6.7C202.934 7.18533 203.634 7.876 204.045 8.772C204.474 9.64933 204.689 10.6947 204.689 11.908C204.689 12.2627 204.67 12.6453 204.633 13.056C204.614 13.4667 204.568 13.868 204.493 14.26L204.381 14.372H195.169C195.3 15.1933 195.682 15.7347 196.317 15.996C196.97 16.2573 198.025 16.388 199.481 16.388C200.452 16.388 201.254 16.3693 201.889 16.332C202.542 16.276 203.205 16.2013 203.877 16.108L203.989 16.192V19.3ZM200.797 11.432C200.797 10.984 200.722 10.6013 200.573 10.284C200.442 9.948 200.172 9.696 199.761 9.528C199.35 9.34133 198.744 9.248 197.941 9.248C196.765 9.248 195.99 9.45333 195.617 9.864C195.262 10.256 195.085 10.7787 195.085 11.432H200.797ZM211.551 19.748H207.071V6.112H210.711L211.075 8.912H211.159C211.327 7.86667 211.728 7.12 212.363 6.672C212.997 6.20533 213.94 5.972 215.191 5.972C215.695 5.972 216.152 6 216.563 6.056C216.973 6.09333 217.319 6.13067 217.599 6.168V10.536L217.543 10.592C217.244 10.5173 216.899 10.452 216.507 10.396C216.133 10.34 215.704 10.312 215.219 10.312C214.528 10.312 213.903 10.424 213.343 10.648C212.801 10.872 212.372 11.3107 212.055 11.964C211.756 12.5987 211.607 13.5507 211.607 14.82L211.551 19.748ZM228.079 19.748L227.911 17.76H227.799C227.481 18.5067 227.024 19.0667 226.427 19.44C225.848 19.8133 224.999 20 223.879 20C222.068 20 220.743 19.4773 219.903 18.432C219.063 17.368 218.624 15.772 218.587 13.644C218.568 11.74 218.764 10.228 219.175 9.108C219.585 7.988 220.229 7.18533 221.107 6.7C221.984 6.21467 223.104 5.972 224.467 5.972C225.176 5.972 225.82 6.03733 226.399 6.168C226.977 6.28 227.444 6.43867 227.799 6.644L227.855 6.616V0.903999H232.335V19.748H228.079ZM225.335 16.192C226.081 16.192 226.688 15.9587 227.155 15.492C227.621 15.0253 227.855 14.2507 227.855 13.168V10.228C227.164 9.948 226.352 9.808 225.419 9.808C224.541 9.808 223.907 10.0227 223.515 10.452C223.141 10.8627 222.955 11.7027 222.955 12.972C222.955 14.0547 223.104 14.8667 223.403 15.408C223.72 15.9307 224.364 16.192 225.335 16.192ZM240.88 5.972C242.672 5.972 244.118 6.15867 245.22 6.532C246.321 6.90533 247.124 7.596 247.628 8.604C248.15 9.59333 248.412 11.0307 248.412 12.916V19.748H244.352L244.212 18.46H244.128C243.773 18.9267 243.222 19.3 242.476 19.58C241.729 19.86 240.758 20 239.564 20C236.334 20 234.72 18.488 234.72 15.464C234.72 14.176 235.14 13.168 235.98 12.44C236.838 11.6933 238.182 11.32 240.012 11.32H244.156C244.025 10.536 243.689 10.0133 243.148 9.752C242.606 9.472 241.682 9.332 240.376 9.332C239.554 9.332 238.742 9.39733 237.94 9.528C237.156 9.64 236.465 9.77067 235.868 9.92L235.784 9.864L235.812 6.616C236.185 6.504 236.661 6.40133 237.24 6.308C237.818 6.196 238.425 6.112 239.06 6.056C239.713 6 240.32 5.972 240.88 5.972ZM240.712 16.696C241.869 16.696 242.737 16.556 243.316 16.276C243.894 15.9773 244.193 15.5107 244.212 14.876V14.176H241.048C240.226 14.176 239.648 14.2973 239.312 14.54C238.994 14.764 238.836 15.072 238.836 15.464C238.836 15.9307 239.004 16.2573 239.34 16.444C239.676 16.612 240.133 16.696 240.712 16.696ZM268.28 5.972C269.661 5.972 270.753 6.42933 271.556 7.344C272.377 8.25867 272.788 9.84533 272.788 12.104V19.748H268.308L268.28 12.664C268.28 11.7493 268.14 11.0867 267.86 10.676C267.599 10.2653 267.076 10.06 266.292 10.06C265.508 10.06 264.976 10.2653 264.696 10.676C264.435 11.0867 264.304 11.7493 264.304 12.664V19.748H259.824L259.796 12.664C259.796 11.7493 259.656 11.0867 259.376 10.676C259.115 10.2653 258.592 10.06 257.808 10.06C257.024 10.06 256.492 10.2653 256.212 10.676C255.951 11.0867 255.82 11.7493 255.82 12.664V19.748H251.34V6.112H255.596L255.82 8.604H255.904C256.147 7.78267 256.567 7.13867 257.164 6.672C257.78 6.20533 258.648 5.972 259.768 5.972C260.888 5.972 261.765 6.20533 262.4 6.672C263.053 7.13867 263.473 7.78267 263.66 8.604H263.744C263.987 7.764 264.453 7.12 265.144 6.672C265.853 6.20533 266.899 5.972 268.28 5.972ZM276.988 15.016L276.148 8.912V2.024H280.292V8.912L279.452 15.016H276.988ZM280.18 17.116C280.217 17.396 280.236 17.648 280.236 17.872C280.254 18.0773 280.264 18.2827 280.264 18.488C280.264 18.8427 280.236 19.2907 280.18 19.832C279.844 19.888 279.517 19.9347 279.2 19.972C278.882 20.0093 278.565 20.028 278.248 20.028C277.949 20.028 277.641 20.0093 277.324 19.972C277.025 19.9347 276.717 19.888 276.4 19.832C276.362 19.5707 276.334 19.3373 276.316 19.132C276.297 18.908 276.288 18.6933 276.288 18.488C276.288 18.3013 276.297 18.096 276.316 17.872C276.334 17.648 276.362 17.396 276.4 17.116C277.016 17.004 277.65 16.948 278.303 16.948C278.92 16.948 279.545 17.004 280.18 17.116Z" fill="black"/>
</svg>
