<svg width="50" height="50" viewBox="0 0 50 50" fill="none" xmlns="http://www.w3.org/2000/svg">
<path d="M48 0H2C0.89375 0 0 0.89375 0 2V48C0 49.1063 0.89375 50 2 50H48C49.1063 50 50 49.1063 50 48V2C50 0.89375 49.1063 0 48 0ZM35.4375 36.6C32.9 38.9375 29.4375 40.3125 25.3063 40.3125C19.325 40.3125 14.15 36.8812 11.6313 31.8812C10.5581 29.7462 9.99942 27.3896 10 25C10 22.525 10.5938 20.1875 11.6313 18.1187C14.15 13.1125 19.325 9.68125 25.3063 9.68125C29.4313 9.68125 32.8937 11.2 35.55 13.6688L31.1625 18.0625C29.575 16.5438 27.5562 15.775 25.3125 15.775C21.325 15.775 17.95 18.4688 16.7437 22.0875C16.4375 23.0063 16.2625 23.9875 16.2625 25C16.2625 26.0125 16.4375 26.9937 16.7437 27.9125C17.95 31.5312 21.325 34.225 25.3063 34.225C27.3688 34.225 29.1187 33.6813 30.4875 32.7625C32.1125 31.675 33.1875 30.0563 33.5438 28.1375H25.3063V22.2125H39.725C39.9062 23.2188 40 24.2625 40 25.3438C40 30.0125 38.3312 33.9312 35.4375 36.6Z" fill="black"/>
</svg>
