<svg width="20" height="19" viewBox="0 0 20 19" fill="none" xmlns="http://www.w3.org/2000/svg">
<path d="M3.02504 17.8364C2.99078 17.9757 2.99017 18.1206 3.02324 18.2602C3.05632 18.3997 3.12222 18.5304 3.21603 18.6424C3.30983 18.7543 3.42909 18.8446 3.56487 18.9066C3.70065 18.9685 3.84943 19.0005 4.00005 19C4.19758 19 4.3907 18.9445 4.55505 18.8404L10.0001 15.3923L15.4451 18.8404C15.6155 18.9478 15.8163 19.0031 16.0208 18.9989C16.2252 18.9946 16.4233 18.931 16.5885 18.8166C16.7537 18.7022 16.8781 18.5424 16.9449 18.3589C17.0117 18.1753 17.0177 17.9767 16.9621 17.7898L15.1331 11.7104L19.6691 7.8329C19.8144 7.70864 19.9182 7.54665 19.9676 7.36698C20.017 7.1873 20.0098 6.99782 19.947 6.82195C19.8843 6.64609 19.7686 6.49156 19.6143 6.37747C19.4601 6.26339 19.274 6.19476 19.0791 6.18006L13.3781 5.7488L10.9111 0.561364C10.8325 0.394287 10.7047 0.25238 10.5431 0.152769C10.3815 0.0531579 10.193 0.000100575 10.0004 1.42846e-07C9.80777 -0.000100289 9.61922 0.0527605 9.45751 0.152203C9.2958 0.251645 9.16784 0.393419 9.08908 0.560414L6.62206 5.7488L0.921032 6.17911C0.729486 6.19352 0.546367 6.26005 0.393584 6.37074C0.2408 6.48142 0.12482 6.63157 0.0595198 6.80323C-0.00578041 6.97488 -0.017636 7.16077 0.0253713 7.33866C0.0683787 7.51655 0.164428 7.67891 0.302028 7.8063L4.51605 11.7076L3.02504 17.8364ZM10.0001 3.2591L12.0421 7.55362L12.6301 7.59827L16.6031 7.89749L13.3321 10.694L13.3311 10.6959L12.8681 11.0911L13.0391 11.6582V11.661L14.2921 15.8264L10.0001 13.1087V3.2591Z" fill="#FFF500"/>
</svg>
