<svg width="177" height="90" viewBox="0 0 177 90" fill="none" xmlns="http://www.w3.org/2000/svg">
<path d="M19.7 36V35.1C20.72 35.04 21.485 34.92 21.995 34.74C22.535 34.56 22.895 34.2 23.075 33.66C23.255 33.12 23.345 32.31 23.345 31.23V8.91C23.345 7.8 23.255 6.99 23.075 6.48C22.895 5.94 22.535 5.58 21.995 5.4C21.485 5.19 20.72 5.07 19.7 5.04V4.14C20.39 4.17 21.26 4.2 22.31 4.23C23.36 4.26 24.395 4.275 25.415 4.275C26.585 4.275 27.68 4.26 28.7 4.23C29.72 4.2 30.545 4.17 31.175 4.14V5.04C30.155 5.07 29.375 5.19 28.835 5.4C28.325 5.58 27.98 5.94 27.8 6.48C27.62 6.99 27.53 7.8 27.53 8.91V31.23C27.53 32.31 27.62 33.12 27.8 33.66C27.98 34.2 28.325 34.56 28.835 34.74C29.375 34.92 30.155 35.04 31.175 35.1V36C30.545 35.94 29.72 35.91 28.7 35.91C27.68 35.88 26.585 35.865 25.415 35.865C24.395 35.865 23.36 35.88 22.31 35.91C21.26 35.91 20.39 35.94 19.7 36ZM0.89 36V35.1C1.91 35.04 2.675 34.92 3.185 34.74C3.725 34.56 4.085 34.2 4.265 33.66C4.445 33.12 4.535 32.31 4.535 31.23V8.91C4.535 7.8 4.445 6.99 4.265 6.48C4.085 5.94 3.725 5.58 3.185 5.4C2.675 5.19 1.91 5.07 0.89 5.04V4.14C1.52 4.17 2.345 4.2 3.365 4.23C4.385 4.26 5.48 4.275 6.65 4.275C7.7 4.275 8.735 4.26 9.755 4.23C10.805 4.2 11.675 4.17 12.365 4.14V5.04C11.345 5.07 10.565 5.19 10.025 5.4C9.515 5.58 9.17 5.94 8.99 6.48C8.81 6.99 8.72 7.8 8.72 8.91V31.23C8.72 32.31 8.81 33.12 8.99 33.66C9.17 34.2 9.515 34.56 10.025 34.74C10.565 34.92 11.345 35.04 12.365 35.1V36C11.675 35.94 10.805 35.91 9.755 35.91C8.735 35.88 7.7 35.865 6.65 35.865C5.48 35.865 4.385 35.88 3.365 35.91C2.345 35.91 1.52 35.94 0.89 36ZM7.145 20.43V19.53H24.92V20.43H7.145ZM44.5066 12.195C47.1466 12.195 49.2016 13.005 50.6716 14.625C52.1716 16.215 52.9216 18.705 52.9216 22.095H37.0366L36.9916 21.24H48.6016C48.6616 19.77 48.5416 18.42 48.2416 17.19C47.9416 15.93 47.4616 14.925 46.8016 14.175C46.1716 13.425 45.3466 13.05 44.3266 13.05C42.9466 13.05 41.7166 13.74 40.6366 15.12C39.5866 16.5 38.9566 18.69 38.7466 21.69L38.8816 21.87C38.8216 22.32 38.7766 22.815 38.7466 23.355C38.7166 23.895 38.7016 24.435 38.7016 24.975C38.7016 27.015 39.0316 28.77 39.6916 30.24C40.3516 31.71 41.2066 32.835 42.2566 33.615C43.3366 34.365 44.4466 34.74 45.5866 34.74C46.4866 34.74 47.3416 34.605 48.1516 34.335C48.9616 34.035 49.7116 33.555 50.4016 32.895C51.0916 32.235 51.6916 31.35 52.2016 30.24L53.1016 30.6C52.7716 31.59 52.2316 32.55 51.4816 33.48C50.7316 34.41 49.7866 35.175 48.6466 35.775C47.5066 36.345 46.1866 36.63 44.6866 36.63C42.5266 36.63 40.6666 36.135 39.1066 35.145C37.5766 34.155 36.3916 32.79 35.5516 31.05C34.7416 29.28 34.3366 27.255 34.3366 24.975C34.3366 22.335 34.7566 20.07 35.5966 18.18C36.4366 16.26 37.6216 14.79 39.1516 13.77C40.6816 12.72 42.4666 12.195 44.5066 12.195ZM63.4903 0.719998V31.815C63.4903 33.075 63.7453 33.93 64.2553 34.38C64.7953 34.83 65.6803 35.055 66.9103 35.055V36C66.4003 35.97 65.6203 35.94 64.5703 35.91C63.5503 35.85 62.5153 35.82 61.4653 35.82C60.4453 35.82 59.4103 35.85 58.3603 35.91C57.3103 35.94 56.5303 35.97 56.0203 36V35.055C57.2503 35.055 58.1203 34.83 58.6303 34.38C59.1703 33.93 59.4403 33.075 59.4403 31.815V6.12C59.4403 4.77 59.2003 3.78 58.7203 3.15C58.2403 2.49 57.3403 2.16 56.0203 2.16V1.215C56.9803 1.305 57.9103 1.35 58.8103 1.35C59.6803 1.35 60.5053 1.305 61.2853 1.215C62.0953 1.095 62.8303 0.929999 63.4903 0.719998ZM76.3663 0.719998V31.815C76.3663 33.075 76.6213 33.93 77.1313 34.38C77.6713 34.83 78.5563 35.055 79.7862 35.055V36C79.2763 35.97 78.4963 35.94 77.4463 35.91C76.4263 35.85 75.3913 35.82 74.3413 35.82C73.3213 35.82 72.2863 35.85 71.2363 35.91C70.1863 35.94 69.4063 35.97 68.8963 36V35.055C70.1263 35.055 70.9963 34.83 71.5063 34.38C72.0463 33.93 72.3163 33.075 72.3163 31.815V6.12C72.3163 4.77 72.0763 3.78 71.5963 3.15C71.1163 2.49 70.2163 2.16 68.8963 2.16V1.215C69.8563 1.305 70.7863 1.35 71.6863 1.35C72.5563 1.35 73.3813 1.305 74.1613 1.215C74.9713 1.095 75.7063 0.929999 76.3663 0.719998ZM92.6728 12.195C94.5928 12.195 96.3178 12.615 97.8478 13.455C99.3778 14.295 100.593 15.615 101.493 17.415C102.423 19.215 102.888 21.555 102.888 24.435C102.888 27.315 102.423 29.655 101.493 31.455C100.593 33.225 99.3778 34.53 97.8478 35.37C96.3178 36.21 94.5928 36.63 92.6728 36.63C90.7828 36.63 89.0578 36.21 87.4978 35.37C85.9678 34.53 84.7378 33.225 83.8078 31.455C82.9078 29.655 82.4578 27.315 82.4578 24.435C82.4578 21.555 82.9078 19.215 83.8078 17.415C84.7378 15.615 85.9678 14.295 87.4978 13.455C89.0578 12.615 90.7828 12.195 92.6728 12.195ZM92.6728 13.095C90.9628 13.095 89.5528 13.98 88.4428 15.75C87.3628 17.52 86.8228 20.415 86.8228 24.435C86.8228 28.455 87.3628 31.35 88.4428 33.12C89.5528 34.86 90.9628 35.73 92.6728 35.73C94.3828 35.73 95.7778 34.86 96.8578 33.12C97.9678 31.35 98.5228 28.455 98.5228 24.435C98.5228 20.415 97.9678 17.52 96.8578 15.75C95.7778 13.98 94.3828 13.095 92.6728 13.095ZM110.666 30.87C111.326 30.87 111.866 31.005 112.286 31.275C112.706 31.545 113.051 31.89 113.321 32.31C113.651 32.79 113.861 33.315 113.951 33.885C114.041 34.455 114.086 34.92 114.086 35.28C114.086 36.75 113.711 38.085 112.961 39.285C112.211 40.485 111.041 41.46 109.451 42.21L109.046 41.4C109.976 41.01 110.771 40.395 111.431 39.555C112.121 38.715 112.466 37.86 112.466 36.99C112.466 36.63 112.421 36.315 112.331 36.045C111.851 36.435 111.296 36.63 110.666 36.63C109.886 36.63 109.211 36.375 108.641 35.865C108.071 35.355 107.786 34.65 107.786 33.75C107.786 32.91 108.071 32.22 108.641 31.68C109.211 31.14 109.886 30.87 110.666 30.87Z" fill="black"/>
<path d="M12.365 57.14V58.04C11.345 58.07 10.565 58.19 10.025 58.4C9.515 58.58 9.17 58.94 8.99 59.48C8.81 59.99 8.72 60.8 8.72 61.91V84.23C8.72 85.31 8.81 86.12 8.99 86.66C9.17 87.2 9.515 87.56 10.025 87.74C10.565 87.89 11.345 87.965 12.365 87.965H15.65C17.06 87.965 18.2 87.815 19.07 87.515C19.97 87.215 20.675 86.75 21.185 86.12C21.725 85.46 22.13 84.59 22.4 83.51C22.67 82.43 22.88 81.11 23.03 79.55H24.065C23.975 80.48 23.93 81.71 23.93 83.24C23.93 83.81 23.945 84.635 23.975 85.715C24.035 86.765 24.125 87.86 24.245 89C22.715 88.94 20.99 88.91 19.07 88.91C17.15 88.88 15.44 88.865 13.94 88.865C13.28 88.865 12.425 88.865 11.375 88.865C10.355 88.865 9.245 88.88 8.045 88.91C6.845 88.91 5.63 88.925 4.4 88.955C3.17 88.955 2 88.97 0.89 89V88.1C1.91 88.04 2.675 87.92 3.185 87.74C3.725 87.56 4.085 87.2 4.265 86.66C4.445 86.12 4.535 85.31 4.535 84.23V61.91C4.535 60.8 4.445 59.99 4.265 59.48C4.085 58.94 3.725 58.58 3.185 58.4C2.675 58.19 1.91 58.07 0.89 58.04V57.14C1.52 57.17 2.345 57.2 3.365 57.23C4.385 57.26 5.48 57.275 6.65 57.275C7.7 57.275 8.735 57.26 9.755 57.23C10.805 57.2 11.675 57.17 12.365 57.14ZM37.6951 65.195C40.3351 65.195 42.3901 66.005 43.8601 67.625C45.3601 69.215 46.1101 71.705 46.1101 75.095H30.2251L30.1801 74.24H41.7901C41.8501 72.77 41.7301 71.42 41.4301 70.19C41.1301 68.93 40.6501 67.925 39.9901 67.175C39.3601 66.425 38.5351 66.05 37.5151 66.05C36.1351 66.05 34.9051 66.74 33.8251 68.12C32.7751 69.5 32.1451 71.69 31.9351 74.69L32.0701 74.87C32.0101 75.32 31.9651 75.815 31.9351 76.355C31.9051 76.895 31.8901 77.435 31.8901 77.975C31.8901 80.015 32.2201 81.77 32.8801 83.24C33.5401 84.71 34.3951 85.835 35.4451 86.615C36.5251 87.365 37.6351 87.74 38.7751 87.74C39.6751 87.74 40.5301 87.605 41.3401 87.335C42.1501 87.035 42.9001 86.555 43.5901 85.895C44.2801 85.235 44.8801 84.35 45.3901 83.24L46.2901 83.6C45.9601 84.59 45.4201 85.55 44.6701 86.48C43.9201 87.41 42.9751 88.175 41.8351 88.775C40.6951 89.345 39.3751 89.63 37.8751 89.63C35.7151 89.63 33.8551 89.135 32.2951 88.145C30.7651 87.155 29.5801 85.79 28.7401 84.05C27.9301 82.28 27.5251 80.255 27.5251 77.975C27.5251 75.335 27.9451 73.07 28.7851 71.18C29.6251 69.26 30.8101 67.79 32.3401 66.77C33.8701 65.72 35.6551 65.195 37.6951 65.195ZM60.5488 65.195C62.4688 65.195 64.1938 65.615 65.7238 66.455C67.2538 67.295 68.4688 68.615 69.3688 70.415C70.2988 72.215 70.7638 74.555 70.7638 77.435C70.7638 80.315 70.2988 82.655 69.3688 84.455C68.4688 86.225 67.2538 87.53 65.7238 88.37C64.1938 89.21 62.4688 89.63 60.5488 89.63C58.6588 89.63 56.9338 89.21 55.3738 88.37C53.8438 87.53 52.6138 86.225 51.6838 84.455C50.7838 82.655 50.3338 80.315 50.3338 77.435C50.3338 74.555 50.7838 72.215 51.6838 70.415C52.6138 68.615 53.8438 67.295 55.3738 66.455C56.9338 65.615 58.6588 65.195 60.5488 65.195ZM60.5488 66.095C58.8388 66.095 57.4288 66.98 56.3188 68.75C55.2388 70.52 54.6988 73.415 54.6988 77.435C54.6988 81.455 55.2388 84.35 56.3188 86.12C57.4288 87.86 58.8388 88.73 60.5488 88.73C62.2588 88.73 63.6538 87.86 64.7338 86.12C65.8438 84.35 66.3988 81.455 66.3988 77.435C66.3988 73.415 65.8438 70.52 64.7338 68.75C63.6538 66.98 62.2588 66.095 60.5488 66.095ZM89.2971 65.195C90.4371 65.195 91.3821 65.345 92.1321 65.645C92.9121 65.945 93.5571 66.365 94.0671 66.905C94.6371 67.505 95.0421 68.255 95.2821 69.155C95.5221 70.055 95.6421 71.27 95.6421 72.8V84.815C95.6421 86.075 95.8971 86.93 96.4071 87.38C96.9471 87.83 97.8321 88.055 99.0621 88.055V89C98.5521 88.97 97.7721 88.94 96.7221 88.91C95.6721 88.85 94.6521 88.82 93.6621 88.82C92.6721 88.82 91.6971 88.85 90.7371 88.91C89.8071 88.94 89.1021 88.97 88.6221 89V88.055C89.7021 88.055 90.4671 87.83 90.9171 87.38C91.3671 86.93 91.5921 86.075 91.5921 84.815V71.81C91.5921 70.88 91.5171 70.025 91.3671 69.245C91.2171 68.465 90.8721 67.835 90.3321 67.355C89.8221 66.875 89.0271 66.635 87.9471 66.635C86.6871 66.635 85.5771 66.995 84.6171 67.715C83.6871 68.435 82.9521 69.425 82.4121 70.685C81.9021 71.915 81.6471 73.295 81.6471 74.825V84.815C81.6471 86.075 81.8721 86.93 82.3221 87.38C82.7721 87.83 83.5371 88.055 84.6171 88.055V89C84.1371 88.97 83.4171 88.94 82.4571 88.91C81.5271 88.85 80.5671 88.82 79.5771 88.82C78.5871 88.82 77.5671 88.85 76.5171 88.91C75.4671 88.94 74.6871 88.97 74.1771 89V88.055C75.4071 88.055 76.2771 87.83 76.7871 87.38C77.3271 86.93 77.5971 86.075 77.5971 84.815V70.73C77.5971 69.38 77.3571 68.39 76.8771 67.76C76.3971 67.1 75.4971 66.77 74.1771 66.77V65.825C75.1371 65.915 76.0671 65.96 76.9671 65.96C77.8371 65.96 78.6621 65.915 79.4421 65.825C80.2521 65.705 80.9871 65.54 81.6471 65.33V70.64C82.4271 68.6 83.5071 67.19 84.8871 66.41C86.2971 65.6 87.7671 65.195 89.2971 65.195ZM107.418 89.315C106.188 89.315 105.123 89.09 104.223 88.64C103.323 88.16 102.633 87.5 102.153 86.66C101.703 85.82 101.478 84.845 101.478 83.735C101.478 82.415 101.778 81.335 102.378 80.495C103.008 79.655 103.803 78.98 104.763 78.47C105.723 77.96 106.728 77.54 107.778 77.21C108.858 76.85 109.878 76.52 110.838 76.22C111.798 75.89 112.578 75.515 113.178 75.095C113.808 74.675 114.123 74.12 114.123 73.43V70.64C114.123 69.38 113.928 68.42 113.538 67.76C113.178 67.1 112.683 66.665 112.053 66.455C111.423 66.215 110.718 66.095 109.938 66.095C109.188 66.095 108.378 66.2 107.508 66.41C106.668 66.62 105.993 67.055 105.483 67.715C106.053 67.835 106.548 68.135 106.968 68.615C107.388 69.095 107.598 69.71 107.598 70.46C107.598 71.21 107.358 71.81 106.878 72.26C106.398 72.68 105.783 72.89 105.033 72.89C104.163 72.89 103.518 72.62 103.098 72.08C102.708 71.51 102.513 70.88 102.513 70.19C102.513 69.41 102.708 68.78 103.098 68.3C103.488 67.82 103.983 67.37 104.583 66.95C105.273 66.47 106.158 66.065 107.238 65.735C108.348 65.375 109.593 65.195 110.973 65.195C112.203 65.195 113.253 65.345 114.123 65.645C114.993 65.915 115.713 66.32 116.283 66.86C117.063 67.58 117.573 68.465 117.813 69.515C118.053 70.535 118.173 71.765 118.173 73.205V85.715C118.173 86.465 118.278 87.005 118.488 87.335C118.728 87.665 119.088 87.83 119.568 87.83C119.898 87.83 120.213 87.755 120.513 87.605C120.813 87.455 121.173 87.215 121.593 86.885L122.088 87.65C121.458 88.13 120.858 88.535 120.288 88.865C119.718 89.165 118.953 89.315 117.993 89.315C117.123 89.315 116.403 89.165 115.833 88.865C115.263 88.565 114.828 88.13 114.528 87.56C114.258 86.96 114.123 86.21 114.123 85.31C113.313 86.66 112.338 87.665 111.198 88.325C110.088 88.985 108.828 89.315 107.418 89.315ZM109.038 87.515C110.028 87.515 110.943 87.23 111.783 86.66C112.653 86.09 113.433 85.235 114.123 84.095V75.275C113.763 75.785 113.238 76.22 112.548 76.58C111.858 76.91 111.108 77.255 110.298 77.615C109.488 77.945 108.708 78.35 107.958 78.83C107.238 79.28 106.638 79.88 106.158 80.63C105.678 81.38 105.438 82.355 105.438 83.555C105.438 84.755 105.753 85.715 106.383 86.435C107.043 87.155 107.928 87.515 109.038 87.515ZM137.435 65.195C138.245 65.195 138.95 65.36 139.55 65.69C140.18 66.02 140.66 66.455 140.99 66.995C141.35 67.505 141.53 68.09 141.53 68.75C141.53 69.5 141.29 70.16 140.81 70.73C140.36 71.3 139.745 71.585 138.965 71.585C138.335 71.585 137.78 71.39 137.3 71C136.82 70.58 136.58 69.995 136.58 69.245C136.58 68.675 136.73 68.195 137.03 67.805C137.36 67.385 137.72 67.055 138.11 66.815C137.9 66.515 137.585 66.365 137.165 66.365C136.235 66.365 135.38 66.65 134.6 67.22C133.82 67.76 133.16 68.465 132.62 69.335C132.08 70.205 131.66 71.135 131.36 72.125C131.06 73.085 130.91 73.985 130.91 74.825V84.365C130.91 85.835 131.33 86.825 132.17 87.335C133.04 87.815 134.21 88.055 135.68 88.055V89C134.99 88.97 134.015 88.94 132.755 88.91C131.495 88.85 130.16 88.82 128.75 88.82C127.73 88.82 126.71 88.85 125.69 88.91C124.7 88.94 123.95 88.97 123.44 89V88.055C124.67 88.055 125.54 87.83 126.05 87.38C126.59 86.93 126.86 86.075 126.86 84.815V70.73C126.86 69.38 126.62 68.39 126.14 67.76C125.66 67.1 124.76 66.77 123.44 66.77V65.825C124.4 65.915 125.33 65.96 126.23 65.96C127.1 65.96 127.925 65.915 128.705 65.825C129.515 65.705 130.25 65.54 130.91 65.33V70.955C131.24 70.085 131.705 69.215 132.305 68.345C132.935 67.445 133.685 66.695 134.555 66.095C135.425 65.495 136.385 65.195 137.435 65.195ZM163.075 53.72V84.095C163.075 85.445 163.315 86.45 163.795 87.11C164.305 87.74 165.205 88.055 166.495 88.055V89C165.565 88.91 164.635 88.865 163.705 88.865C162.835 88.865 161.995 88.91 161.185 89C160.405 89.09 159.685 89.255 159.025 89.495V59.12C159.025 57.77 158.785 56.78 158.305 56.15C157.825 55.49 156.925 55.16 155.605 55.16V54.215C156.565 54.305 157.495 54.35 158.395 54.35C159.265 54.35 160.09 54.305 160.87 54.215C161.68 54.095 162.415 53.93 163.075 53.72ZM153.625 65.195C154.945 65.195 156.175 65.51 157.315 66.14C158.485 66.77 159.265 67.85 159.655 69.38L159.07 69.83C158.65 68.57 157.99 67.655 157.09 67.085C156.22 66.515 155.185 66.23 153.985 66.23C152.215 66.23 150.73 67.145 149.53 68.975C148.36 70.805 147.79 73.625 147.82 77.435C147.82 79.865 148.045 81.89 148.495 83.51C148.975 85.1 149.665 86.3 150.565 87.11C151.495 87.89 152.62 88.28 153.94 88.28C155.2 88.28 156.34 87.74 157.36 86.66C158.38 85.58 158.995 83.99 159.205 81.89L159.745 82.52C159.505 84.8 158.77 86.555 157.54 87.785C156.34 89.015 154.705 89.63 152.635 89.63C150.775 89.63 149.14 89.18 147.73 88.28C146.35 87.38 145.285 86.03 144.535 84.23C143.815 82.43 143.455 80.165 143.455 77.435C143.455 74.705 143.92 72.44 144.85 70.64C145.81 68.81 147.055 67.445 148.585 66.545C150.145 65.645 151.825 65.195 153.625 65.195ZM173.337 53.81C173.907 53.81 174.387 54.005 174.777 54.395C175.197 54.785 175.407 55.43 175.407 56.33C175.407 57.5 175.317 58.955 175.137 60.695C174.987 62.435 174.792 64.37 174.552 66.5C174.342 68.6 174.147 70.82 173.967 73.16C173.817 75.47 173.742 77.81 173.742 80.18H172.932C172.932 77.81 172.842 75.47 172.662 73.16C172.512 70.82 172.317 68.6 172.077 66.5C171.867 64.37 171.672 62.435 171.492 60.695C171.342 58.955 171.267 57.5 171.267 56.33C171.267 55.43 171.462 54.785 171.852 54.395C172.272 54.005 172.767 53.81 173.337 53.81ZM173.337 83.87C174.117 83.87 174.792 84.155 175.362 84.725C175.932 85.295 176.217 85.97 176.217 86.75C176.217 87.53 175.932 88.205 175.362 88.775C174.792 89.345 174.117 89.63 173.337 89.63C172.557 89.63 171.882 89.345 171.312 88.775C170.742 88.205 170.457 87.53 170.457 86.75C170.457 85.97 170.742 85.295 171.312 84.725C171.882 84.155 172.557 83.87 173.337 83.87Z" fill="white"/>
</svg>
