<svg width="134" height="31" viewBox="0 0 134 31" fill="none" xmlns="http://www.w3.org/2000/svg">
<rect width="134" height="31" rx="15.5" fill="#D5E2E5"/>
<path d="M55.36 16.39V18.838H47.08V7.444H49.96V16.39H55.36ZM55.9949 14.518C55.9949 12.91 56.3369 11.752 57.0209 11.044C57.7049 10.336 58.8629 9.982 60.4949 9.982C61.5869 9.982 62.4629 10.138 63.1229 10.45C63.7829 10.762 64.2569 11.254 64.5449 11.926C64.8449 12.586 64.9949 13.45 64.9949 14.518C64.9949 15.574 64.8449 16.432 64.5449 17.092C64.2569 17.752 63.7829 18.238 63.1229 18.55C62.4629 18.85 61.5869 19 60.4949 19C58.8629 19 57.7049 18.652 57.0209 17.956C56.3369 17.248 55.9949 16.102 55.9949 14.518ZM60.4949 16.534C61.1909 16.534 61.6589 16.384 61.8989 16.084C62.1509 15.772 62.2769 15.232 62.2769 14.464C62.2769 13.732 62.1509 13.21 61.8989 12.898C61.6589 12.574 61.1909 12.412 60.4949 12.412C59.8229 12.412 59.3549 12.574 59.0909 12.898C58.8389 13.21 58.7129 13.732 58.7129 14.464C58.7129 15.232 58.8389 15.772 59.0909 16.084C59.3549 16.384 59.8229 16.534 60.4949 16.534ZM67.1694 18.244C66.7734 18.076 66.4854 17.86 66.3054 17.596C66.1254 17.332 66.0354 17.014 66.0354 16.642C66.0354 16.306 66.1254 16.012 66.3054 15.76C66.4974 15.508 66.7494 15.31 67.0614 15.166V15.112C66.7614 14.872 66.5394 14.572 66.3954 14.212C66.2634 13.84 66.1974 13.414 66.1974 12.934C66.1974 11.974 66.5094 11.242 67.1334 10.738C67.7574 10.234 68.8374 9.982 70.3734 9.982C71.6334 9.982 72.5934 10.162 73.2534 10.522H73.3434C73.5354 10.21 73.7814 9.952 74.0814 9.748C74.3814 9.544 74.7474 9.442 75.1794 9.442C75.3114 9.442 75.4314 9.448 75.5394 9.46C75.6474 9.46 75.7494 9.466 75.8454 9.478V11.692C75.6174 11.644 75.3474 11.62 75.0354 11.62C74.7834 11.62 74.5434 11.644 74.3154 11.692C74.4474 12.04 74.5134 12.454 74.5134 12.934C74.5134 13.966 74.2014 14.71 73.5774 15.166C72.9534 15.622 71.8854 15.85 70.3734 15.85C70.0254 15.85 69.7014 15.838 69.4014 15.814C69.1014 15.79 68.8254 15.754 68.5734 15.706C68.5254 15.802 68.5014 15.916 68.5014 16.048C68.5014 16.24 68.5614 16.402 68.6814 16.534C68.8134 16.654 69.0354 16.714 69.3474 16.714H71.9394C73.0434 16.714 73.8654 16.888 74.4054 17.236C74.9574 17.584 75.2334 18.256 75.2334 19.252C75.2334 20.236 74.8494 20.986 74.0814 21.502C73.3134 22.018 72.0174 22.276 70.1934 22.276C68.6934 22.276 67.6014 22.072 66.9174 21.664C66.2334 21.268 65.8914 20.686 65.8914 19.918C65.8914 19.498 66.0054 19.15 66.2334 18.874C66.4614 18.586 66.7734 18.394 67.1694 18.298V18.244ZM70.3734 13.924C70.9374 13.924 71.3334 13.858 71.5614 13.726C71.7894 13.582 71.9034 13.33 71.9034 12.97C71.9034 12.61 71.7894 12.346 71.5614 12.178C71.3334 12.01 70.9374 11.926 70.3734 11.926C69.7974 11.926 69.3954 12.01 69.1674 12.178C68.9394 12.346 68.8254 12.61 68.8254 12.97C68.8254 13.33 68.9394 13.582 69.1674 13.726C69.3954 13.858 69.7974 13.924 70.3734 13.924ZM70.5354 20.152C71.1714 20.152 71.6394 20.122 71.9394 20.062C72.2394 20.002 72.4374 19.912 72.5334 19.792C72.6294 19.672 72.6774 19.522 72.6774 19.342C72.6774 19.138 72.6174 18.976 72.4974 18.856C72.3774 18.724 72.1974 18.658 71.9574 18.658H69.2034C68.9634 18.658 68.7834 18.724 68.6634 18.856C68.5434 18.976 68.4834 19.138 68.4834 19.342C68.4834 19.522 68.5314 19.672 68.6274 19.792C68.7354 19.912 68.9334 20.002 69.2214 20.062C69.5214 20.122 69.9594 20.152 70.5354 20.152ZM79.4699 6.814C79.5059 7.246 79.5239 7.606 79.5239 7.894C79.5239 8.062 79.5179 8.236 79.5059 8.416C79.5059 8.584 79.4939 8.776 79.4699 8.992C79.2179 9.04 78.9719 9.076 78.7319 9.1C78.4919 9.124 78.2519 9.136 78.0119 9.136C77.7839 9.136 77.5499 9.124 77.3099 9.1C77.0819 9.076 76.8479 9.04 76.6079 8.992C76.5839 8.788 76.5659 8.602 76.5539 8.434C76.5419 8.254 76.5359 8.08 76.5359 7.912C76.5359 7.756 76.5419 7.588 76.5539 7.408C76.5659 7.228 76.5839 7.03 76.6079 6.814C76.8479 6.754 77.0879 6.718 77.3279 6.706C77.5799 6.682 77.8259 6.67 78.0659 6.67C78.2939 6.67 78.5219 6.682 78.7499 6.706C78.9899 6.718 79.2299 6.754 79.4699 6.814ZM79.4699 18.838H76.5899V10.072H79.4699V18.838ZM84.3428 18.838H81.4628V10.072H84.1988L84.3428 11.674H84.3968C84.5648 11.134 84.8648 10.72 85.2968 10.432C85.7288 10.132 86.3288 9.982 87.0968 9.982C88.1408 9.982 88.9088 10.276 89.4008 10.864C89.9048 11.452 90.1568 12.472 90.1568 13.924V18.838H87.2768L87.2588 14.482C87.2588 13.81 87.1568 13.33 86.9528 13.042C86.7488 12.754 86.3648 12.61 85.8008 12.61C85.2728 12.61 84.9008 12.742 84.6848 13.006C84.4688 13.258 84.3548 13.696 84.3428 14.32V18.838Z" fill="black"/>
</svg>
