<svg width="68" height="26" viewBox="0 0 68 26" fill="none" xmlns="http://www.w3.org/2000/svg">
<path d="M13.56 15.94V19.748H0.68V2.024H5.16V15.94H13.56ZM14.5477 13.028C14.5477 10.5267 15.0797 8.72533 16.1437 7.624C17.2077 6.52267 19.009 5.972 21.5477 5.972C23.2463 5.972 24.609 6.21467 25.6357 6.7C26.6623 7.18533 27.3997 7.95067 27.8477 8.996C28.3143 10.0227 28.5477 11.3667 28.5477 13.028C28.5477 14.6707 28.3143 16.0053 27.8477 17.032C27.3997 18.0587 26.6623 18.8147 25.6357 19.3C24.609 19.7667 23.2463 20 21.5477 20C19.009 20 17.2077 19.4587 16.1437 18.376C15.0797 17.2747 14.5477 15.492 14.5477 13.028ZM21.5477 16.164C22.6303 16.164 23.3583 15.9307 23.7317 15.464C24.1237 14.9787 24.3197 14.1387 24.3197 12.944C24.3197 11.8053 24.1237 10.9933 23.7317 10.508C23.3583 10.004 22.6303 9.752 21.5477 9.752C20.5023 9.752 19.7743 10.004 19.3637 10.508C18.9717 10.9933 18.7757 11.8053 18.7757 12.944C18.7757 14.1387 18.9717 14.9787 19.3637 15.464C19.7743 15.9307 20.5023 16.164 21.5477 16.164ZM31.9302 18.824C31.3142 18.5627 30.8662 18.2267 30.5862 17.816C30.3062 17.4053 30.1662 16.9107 30.1662 16.332C30.1662 15.8093 30.3062 15.352 30.5862 14.96C30.8849 14.568 31.2769 14.26 31.7622 14.036V13.952C31.2955 13.5787 30.9502 13.112 30.7262 12.552C30.5209 11.9733 30.4182 11.3107 30.4182 10.564C30.4182 9.07067 30.9035 7.932 31.8742 7.148C32.8449 6.364 34.5249 5.972 36.9142 5.972C38.8742 5.972 40.3675 6.252 41.3942 6.812H41.5342C41.8329 6.32667 42.2155 5.92533 42.6822 5.608C43.1489 5.29067 43.7182 5.132 44.3902 5.132C44.5955 5.132 44.7822 5.14133 44.9502 5.16C45.1182 5.16 45.2769 5.16933 45.4262 5.188V8.632C45.0715 8.55733 44.6515 8.52 44.1662 8.52C43.7742 8.52 43.4009 8.55733 43.0462 8.632C43.2515 9.17333 43.3542 9.81733 43.3542 10.564C43.3542 12.1693 42.8689 13.3267 41.8982 14.036C40.9275 14.7453 39.2662 15.1 36.9142 15.1C36.3729 15.1 35.8689 15.0813 35.4022 15.044C34.9355 15.0067 34.5062 14.9507 34.1142 14.876C34.0395 15.0253 34.0022 15.2027 34.0022 15.408C34.0022 15.7067 34.0955 15.9587 34.2822 16.164C34.4875 16.3507 34.8329 16.444 35.3182 16.444H39.3502C41.0675 16.444 42.3462 16.7147 43.1862 17.256C44.0449 17.7973 44.4742 18.8427 44.4742 20.392C44.4742 21.9227 43.8769 23.0893 42.6822 23.892C41.4875 24.6947 39.4715 25.096 36.6342 25.096C34.3009 25.096 32.6022 24.7787 31.5382 24.144C30.4742 23.528 29.9422 22.6227 29.9422 21.428C29.9422 20.7747 30.1195 20.2333 30.4742 19.804C30.8289 19.356 31.3142 19.0573 31.9302 18.908V18.824ZM36.9142 12.104C37.7915 12.104 38.4075 12.0013 38.7622 11.796C39.1169 11.572 39.2942 11.18 39.2942 10.62C39.2942 10.06 39.1169 9.64933 38.7622 9.388C38.4075 9.12667 37.7915 8.996 36.9142 8.996C36.0182 8.996 35.3929 9.12667 35.0382 9.388C34.6835 9.64933 34.5062 10.06 34.5062 10.62C34.5062 11.18 34.6835 11.572 35.0382 11.796C35.3929 12.0013 36.0182 12.104 36.9142 12.104ZM37.1662 21.792C38.1555 21.792 38.8835 21.7453 39.3502 21.652C39.8169 21.5587 40.1249 21.4187 40.2742 21.232C40.4235 21.0453 40.4982 20.812 40.4982 20.532C40.4982 20.2147 40.4049 19.9627 40.2182 19.776C40.0315 19.5707 39.7515 19.468 39.3782 19.468H35.0942C34.7209 19.468 34.4409 19.5707 34.2542 19.776C34.0675 19.9627 33.9742 20.2147 33.9742 20.532C33.9742 20.812 34.0489 21.0453 34.1982 21.232C34.3662 21.4187 34.6742 21.5587 35.1222 21.652C35.5889 21.7453 36.2702 21.792 37.1662 21.792ZM51.0643 1.044C51.1203 1.716 51.1483 2.276 51.1483 2.724C51.1483 2.98533 51.1389 3.256 51.1203 3.536C51.1203 3.79733 51.1016 4.096 51.0643 4.432C50.6723 4.50667 50.2896 4.56267 49.9163 4.6C49.5429 4.63733 49.1696 4.656 48.7963 4.656C48.4416 4.656 48.0776 4.63733 47.7043 4.6C47.3496 4.56267 46.9856 4.50667 46.6123 4.432C46.5749 4.11467 46.5469 3.82533 46.5283 3.564C46.5096 3.284 46.5003 3.01333 46.5003 2.752C46.5003 2.50933 46.5096 2.248 46.5283 1.968C46.5469 1.688 46.5749 1.38 46.6123 1.044C46.9856 0.950665 47.3589 0.894666 47.7323 0.875999C48.1243 0.838665 48.5069 0.819998 48.8803 0.819998C49.2349 0.819998 49.5896 0.838665 49.9443 0.875999C50.3176 0.894666 50.6909 0.950665 51.0643 1.044ZM51.0643 19.748H46.5843V6.112H51.0643V19.748ZM58.6444 19.748H54.1644V6.112H58.4204L58.6444 8.604H58.7284C58.9897 7.764 59.4564 7.12 60.1284 6.672C60.8004 6.20533 61.7337 5.972 62.9284 5.972C64.5524 5.972 65.747 6.42933 66.5124 7.344C67.2964 8.25867 67.6884 9.84533 67.6884 12.104V19.748H63.2084L63.1804 12.972C63.1804 11.9267 63.0217 11.18 62.7044 10.732C62.387 10.284 61.7897 10.06 60.9124 10.06C60.091 10.06 59.5124 10.2653 59.1764 10.676C58.8404 11.068 58.663 11.7493 58.6444 12.72V19.748Z" fill="black"/>
</svg>
