<svg width="132" height="35" viewBox="0 0 132 35" fill="none" xmlns="http://www.w3.org/2000/svg">
<rect width="132" height="35" rx="17.5" fill="black"/>
<path d="M52.36 21.39V23.838H44.08V12.444H46.96V21.39H52.36ZM52.9949 19.518C52.9949 17.91 53.3369 16.752 54.0209 16.044C54.7049 15.336 55.8629 14.982 57.4949 14.982C58.5869 14.982 59.4629 15.138 60.1229 15.45C60.7829 15.762 61.2569 16.254 61.5449 16.926C61.8449 17.586 61.9949 18.45 61.9949 19.518C61.9949 20.574 61.8449 21.432 61.5449 22.092C61.2569 22.752 60.7829 23.238 60.1229 23.55C59.4629 23.85 58.5869 24 57.4949 24C55.8629 24 54.7049 23.652 54.0209 22.956C53.3369 22.248 52.9949 21.102 52.9949 19.518ZM57.4949 21.534C58.1909 21.534 58.6589 21.384 58.8989 21.084C59.1509 20.772 59.2769 20.232 59.2769 19.464C59.2769 18.732 59.1509 18.21 58.8989 17.898C58.6589 17.574 58.1909 17.412 57.4949 17.412C56.8229 17.412 56.3549 17.574 56.0909 17.898C55.8389 18.21 55.7129 18.732 55.7129 19.464C55.7129 20.232 55.8389 20.772 56.0909 21.084C56.3549 21.384 56.8229 21.534 57.4949 21.534ZM64.1694 23.244C63.7734 23.076 63.4854 22.86 63.3054 22.596C63.1254 22.332 63.0354 22.014 63.0354 21.642C63.0354 21.306 63.1254 21.012 63.3054 20.76C63.4974 20.508 63.7494 20.31 64.0614 20.166V20.112C63.7614 19.872 63.5394 19.572 63.3954 19.212C63.2634 18.84 63.1974 18.414 63.1974 17.934C63.1974 16.974 63.5094 16.242 64.1334 15.738C64.7574 15.234 65.8374 14.982 67.3734 14.982C68.6334 14.982 69.5934 15.162 70.2534 15.522H70.3434C70.5354 15.21 70.7814 14.952 71.0814 14.748C71.3814 14.544 71.7474 14.442 72.1794 14.442C72.3114 14.442 72.4314 14.448 72.5394 14.46C72.6474 14.46 72.7494 14.466 72.8454 14.478V16.692C72.6174 16.644 72.3474 16.62 72.0354 16.62C71.7834 16.62 71.5434 16.644 71.3154 16.692C71.4474 17.04 71.5134 17.454 71.5134 17.934C71.5134 18.966 71.2014 19.71 70.5774 20.166C69.9534 20.622 68.8854 20.85 67.3734 20.85C67.0254 20.85 66.7014 20.838 66.4014 20.814C66.1014 20.79 65.8254 20.754 65.5734 20.706C65.5254 20.802 65.5014 20.916 65.5014 21.048C65.5014 21.24 65.5614 21.402 65.6814 21.534C65.8134 21.654 66.0354 21.714 66.3474 21.714H68.9394C70.0434 21.714 70.8654 21.888 71.4054 22.236C71.9574 22.584 72.2334 23.256 72.2334 24.252C72.2334 25.236 71.8494 25.986 71.0814 26.502C70.3134 27.018 69.0174 27.276 67.1934 27.276C65.6934 27.276 64.6014 27.072 63.9174 26.664C63.2334 26.268 62.8914 25.686 62.8914 24.918C62.8914 24.498 63.0054 24.15 63.2334 23.874C63.4614 23.586 63.7734 23.394 64.1694 23.298V23.244ZM67.3734 18.924C67.9374 18.924 68.3334 18.858 68.5614 18.726C68.7894 18.582 68.9034 18.33 68.9034 17.97C68.9034 17.61 68.7894 17.346 68.5614 17.178C68.3334 17.01 67.9374 16.926 67.3734 16.926C66.7974 16.926 66.3954 17.01 66.1674 17.178C65.9394 17.346 65.8254 17.61 65.8254 17.97C65.8254 18.33 65.9394 18.582 66.1674 18.726C66.3954 18.858 66.7974 18.924 67.3734 18.924ZM67.5354 25.152C68.1714 25.152 68.6394 25.122 68.9394 25.062C69.2394 25.002 69.4374 24.912 69.5334 24.792C69.6294 24.672 69.6774 24.522 69.6774 24.342C69.6774 24.138 69.6174 23.976 69.4974 23.856C69.3774 23.724 69.1974 23.658 68.9574 23.658H66.2034C65.9634 23.658 65.7834 23.724 65.6634 23.856C65.5434 23.976 65.4834 24.138 65.4834 24.342C65.4834 24.522 65.5314 24.672 65.6274 24.792C65.7354 24.912 65.9334 25.002 66.2214 25.062C66.5214 25.122 66.9594 25.152 67.5354 25.152ZM76.4699 11.814C76.5059 12.246 76.5239 12.606 76.5239 12.894C76.5239 13.062 76.5179 13.236 76.5059 13.416C76.5059 13.584 76.4939 13.776 76.4699 13.992C76.2179 14.04 75.9719 14.076 75.7319 14.1C75.4919 14.124 75.2519 14.136 75.0119 14.136C74.7839 14.136 74.5499 14.124 74.3099 14.1C74.0819 14.076 73.8479 14.04 73.6079 13.992C73.5839 13.788 73.5659 13.602 73.5539 13.434C73.5419 13.254 73.5359 13.08 73.5359 12.912C73.5359 12.756 73.5419 12.588 73.5539 12.408C73.5659 12.228 73.5839 12.03 73.6079 11.814C73.8479 11.754 74.0879 11.718 74.3279 11.706C74.5799 11.682 74.8259 11.67 75.0659 11.67C75.2939 11.67 75.5219 11.682 75.7499 11.706C75.9899 11.718 76.2299 11.754 76.4699 11.814ZM76.4699 23.838H73.5899V15.072H76.4699V23.838ZM81.3428 23.838H78.4628V15.072H81.1988L81.3428 16.674H81.3968C81.5648 16.134 81.8648 15.72 82.2968 15.432C82.7288 15.132 83.3288 14.982 84.0968 14.982C85.1408 14.982 85.9088 15.276 86.4008 15.864C86.9048 16.452 87.1568 17.472 87.1568 18.924V23.838H84.2768L84.2588 19.482C84.2588 18.81 84.1568 18.33 83.9528 18.042C83.7488 17.754 83.3648 17.61 82.8008 17.61C82.2728 17.61 81.9008 17.742 81.6848 18.006C81.4688 18.258 81.3548 18.696 81.3428 19.32V23.838Z" fill="white"/>
</svg>
