<svg width="44" height="48" viewBox="0 0 44 48" fill="none" xmlns="http://www.w3.org/2000/svg">
<path fill-rule="evenodd" clip-rule="evenodd" d="M18.9144 1.39716L15.6 5.00965C15.3324 5.30172 14.9696 5.46624 14.591 5.46721H9.37603C6.96504 5.46721 5.01161 7.59822 5.01161 10.2284V15.9175C5.01161 16.3335 4.85909 16.727 4.59218 17.0214L1.2778 20.6339C0.459623 21.5267 0 22.7375 0 24C0 25.2625 0.459623 26.4733 1.2778 27.3661L4.59218 30.9818C4.85991 31.2738 5.01072 31.6695 5.01161 32.0825V37.7716C5.01161 40.4018 6.96504 42.5328 9.37603 42.5328H14.591C14.9723 42.5328 15.3331 42.6992 15.603 42.9904L18.9144 46.606C19.7328 47.4986 20.8427 48 22 48C23.1573 48 24.2672 47.4986 25.0856 46.606L28.4 42.9904C28.6676 42.6983 29.0304 42.5338 29.409 42.5328H34.624C37.035 42.5328 38.9884 40.4018 38.9884 37.7716V32.0825C38.9884 31.6665 39.1409 31.273 39.4078 30.9786L42.7222 27.3661C43.5404 26.4733 44 25.2625 44 24C44 22.7375 43.5404 21.5267 42.7222 20.6339L39.4078 17.0182C39.1401 16.7262 38.9893 16.3305 38.9884 15.9175V10.2284C38.9884 7.59822 37.035 5.46721 34.624 5.46721H29.409C29.0294 5.46709 28.6654 5.3025 28.397 5.00965L25.0856 1.39396C24.2672 0.501406 23.1573 0 22 0C20.8427 0 19.7328 0.501406 18.9144 1.39396V1.39716ZM13.629 30.8666L28.2944 14.868L30.371 17.1334L15.7056 33.132L13.629 30.8666ZM14.6673 16.0007V19.2004H17.6004V16.0007H14.6673ZM26.3996 31.9993H29.3327V28.7996H26.3996V31.9993Z" fill="black"/>
</svg>
