<svg width="370" height="18" viewBox="0 0 370 18" fill="none" xmlns="http://www.w3.org/2000/svg">
<path d="M179.3 10.012C179.3 8.94 179.528 8.168 179.984 7.696C180.44 7.224 181.212 6.988 182.3 6.988C183.028 6.988 183.612 7.092 184.052 7.3C184.492 7.508 184.808 7.836 185 8.284C185.2 8.724 185.3 9.3 185.3 10.012C185.3 10.716 185.2 11.288 185 11.728C184.808 12.168 184.492 12.492 184.052 12.7C183.612 12.9 183.028 13 182.3 13C181.212 13 180.44 12.768 179.984 12.304C179.528 11.832 179.3 11.068 179.3 10.012ZM182.3 11.356C182.764 11.356 183.076 11.256 183.236 11.056C183.404 10.848 183.488 10.488 183.488 9.976C183.488 9.488 183.404 9.14 183.236 8.932C183.076 8.716 182.764 8.608 182.3 8.608C181.852 8.608 181.54 8.716 181.364 8.932C181.196 9.14 181.112 9.488 181.112 9.976C181.112 10.488 181.196 10.848 181.364 11.056C181.54 11.256 181.852 11.356 182.3 11.356ZM188.238 12.892H186.318V7.048H187.878L188.034 8.248H188.07C188.142 7.8 188.314 7.48 188.586 7.288C188.858 7.088 189.262 6.988 189.798 6.988C190.014 6.988 190.21 7 190.386 7.024C190.562 7.04 190.71 7.056 190.83 7.072V8.944L190.806 8.968C190.678 8.936 190.53 8.908 190.362 8.884C190.202 8.86 190.018 8.848 189.81 8.848C189.514 8.848 189.246 8.896 189.006 8.992C188.774 9.088 188.59 9.276 188.454 9.556C188.326 9.828 188.262 10.236 188.262 10.78L188.238 12.892Z" fill="#767575"/>
<line y1="10.5" x2="177" y2="10.5" stroke="#8D8D8D"/>
<line x1="193" y1="10.5" x2="370" y2="10.5" stroke="#8D8D8D"/>
</svg>
