<svg width="32" height="32" viewBox="0 0 32 32" fill="none" xmlns="http://www.w3.org/2000/svg">
<path d="M16 15.995C15.5343 15.9947 15.0877 15.8095 14.7586 15.48C14.4295 15.1505 14.2447 14.7037 14.245 14.238C14.2453 13.7723 14.4305 13.3257 14.76 12.9966C15.0895 12.6675 15.5363 12.4827 16.002 12.483C16.2326 12.4831 16.4609 12.5287 16.6739 12.6171C16.8869 12.7054 17.0804 12.8349 17.2434 12.998C17.4064 13.1612 17.5356 13.3548 17.6237 13.5679C17.7118 13.781 17.7571 14.0094 17.757 14.24C17.7569 14.4706 17.7113 14.6989 17.6229 14.9119C17.5346 15.1249 17.4051 15.3184 17.242 15.4814C17.0788 15.6444 16.8852 15.7736 16.6721 15.8617C16.459 15.9498 16.2306 15.9951 16 15.995ZM19.885 15.969C19.885 12.197 18.412 8.77 16 6.24C13.4992 8.86089 12.1073 12.3464 12.115 15.969C12.115 17.697 12.422 19.349 12.99 20.88C12.167 22.079 11.563 23.76 11.293 25.697C12.146 24.677 13.189 23.958 14.35 23.578C14.8336 24.3276 15.3864 25.0304 16.001 25.677C16.6161 25.0233 17.1689 24.3135 17.652 23.557C18.813 23.917 19.856 24.656 20.704 25.656C20.439 23.719 19.835 22.036 19.007 20.839C19.575 19.298 19.887 17.656 19.887 15.918L19.885 15.969ZM16 29.333C8.636 29.333 2.667 23.364 2.667 16C2.667 8.636 8.636 2.667 16 2.667C23.364 2.667 29.333 8.636 29.333 16C29.333 23.364 23.364 29.333 16 29.333ZM16 0C7.161 0 0 7.161 0 16C0 24.839 7.161 32 16 32C24.839 32 32 24.839 32 16C32 7.161 24.839 0 16 0Z" fill="black"/>
</svg>
