<svg width="40" height="40" viewBox="0 0 40 40" fill="none" xmlns="http://www.w3.org/2000/svg">
<circle cx="20" cy="20" r="20" fill="#F4F1EC"/>
<path d="M19.166 11.6667C23.306 11.6667 26.666 15.0267 26.666 19.1667C26.666 23.3067 23.306 26.6667 19.166 26.6667C15.026 26.6667 11.666 23.3067 11.666 19.1667C11.666 15.0267 15.026 11.6667 19.166 11.6667ZM19.166 25.0001C22.3885 25.0001 24.9993 22.3892 24.9993 19.1667C24.9993 15.9434 22.3885 13.3334 19.166 13.3334C15.9427 13.3334 13.3327 15.9434 13.3327 19.1667C13.3327 22.3892 15.9427 25.0001 19.166 25.0001ZM26.2369 25.0592L28.5943 27.4159L27.4152 28.5951L25.0585 26.2376L26.2369 25.0592V25.0592Z" fill="#404040"/>
</svg>
