<svg width="88" height="26" viewBox="0 0 88 26" fill="none" xmlns="http://www.w3.org/2000/svg">
<path d="M0.232 15.184C1.05333 15.464 1.94933 15.688 2.92 15.856C3.90933 16.0053 4.88933 16.08 5.86 16.08C7.18533 16.08 8.16533 16.024 8.8 15.912C9.45333 15.7813 9.88267 15.5853 10.088 15.324C10.2933 15.0627 10.396 14.7267 10.396 14.316C10.396 13.9613 10.3213 13.6813 10.172 13.476C10.0227 13.2707 9.73333 13.112 9.304 13C8.87467 12.8693 8.24 12.7667 7.4 12.692L5.552 12.524C4.17067 12.3933 3.07867 12.104 2.276 11.656C1.492 11.208 0.932 10.6107 0.596 9.864C0.278667 9.09867 0.12 8.184 0.12 7.12C0.12 5.85067 0.372 4.824 0.876 4.04C1.39867 3.256 2.23867 2.68667 3.396 2.332C4.55333 1.95867 6.09333 1.772 8.016 1.772C10.5173 1.772 12.58 2.09867 14.204 2.752L14.12 6.56L14.036 6.672C12.188 6.01867 10.256 5.692 8.24 5.692C7.26933 5.692 6.52267 5.748 6 5.86C5.47733 5.95333 5.11333 6.112 4.908 6.336C4.70267 6.56 4.6 6.87733 4.6 7.288C4.6 7.69867 4.66533 8.00667 4.796 8.212C4.94533 8.41733 5.23467 8.576 5.664 8.688C6.09333 8.78133 6.71867 8.87467 7.54 8.968L9.304 9.164C10.7973 9.332 11.9453 9.63067 12.748 10.06C13.5507 10.4893 14.1013 11.068 14.4 11.796C14.7173 12.5053 14.876 13.3733 14.876 14.4C14.876 15.6507 14.6053 16.696 14.064 17.536C13.5413 18.3573 12.6827 18.9733 11.488 19.384C10.2933 19.7947 8.69733 20 6.7 20C5.39333 20 4.21733 19.9347 3.172 19.804C2.12667 19.6547 1.10933 19.4587 0.12 19.216V15.268L0.232 15.184ZM21.9158 1.044C21.9718 1.716 21.9998 2.276 21.9998 2.724C21.9998 2.98533 21.9905 3.256 21.9718 3.536C21.9718 3.79733 21.9531 4.096 21.9158 4.432C21.5238 4.50667 21.1411 4.56267 20.7678 4.6C20.3945 4.63733 20.0211 4.656 19.6478 4.656C19.2931 4.656 18.9291 4.63733 18.5558 4.6C18.2011 4.56267 17.8371 4.50667 17.4638 4.432C17.4265 4.11467 17.3985 3.82533 17.3798 3.564C17.3611 3.284 17.3518 3.01333 17.3518 2.752C17.3518 2.50933 17.3611 2.248 17.3798 1.968C17.3985 1.688 17.4265 1.38 17.4638 1.044C17.8371 0.950665 18.2105 0.894666 18.5838 0.875999C18.9758 0.838665 19.3585 0.819998 19.7318 0.819998C20.0865 0.819998 20.4411 0.838665 20.7958 0.875999C21.1691 0.894666 21.5425 0.950665 21.9158 1.044ZM21.9158 19.748H17.4358V6.112H21.9158V19.748ZM26.0239 18.824C25.4079 18.5627 24.9599 18.2267 24.6799 17.816C24.3999 17.4053 24.2599 16.9107 24.2599 16.332C24.2599 15.8093 24.3999 15.352 24.6799 14.96C24.9786 14.568 25.3706 14.26 25.8559 14.036V13.952C25.3893 13.5787 25.0439 13.112 24.8199 12.552C24.6146 11.9733 24.5119 11.3107 24.5119 10.564C24.5119 9.07067 24.9973 7.932 25.9679 7.148C26.9386 6.364 28.6186 5.972 31.0079 5.972C32.9679 5.972 34.4613 6.252 35.4879 6.812H35.6279C35.9266 6.32667 36.3093 5.92533 36.7759 5.608C37.2426 5.29067 37.8119 5.132 38.4839 5.132C38.6893 5.132 38.8759 5.14133 39.0439 5.16C39.2119 5.16 39.3706 5.16933 39.5199 5.188V8.632C39.1653 8.55733 38.7453 8.52 38.2599 8.52C37.8679 8.52 37.4946 8.55733 37.1399 8.632C37.3453 9.17333 37.4479 9.81733 37.4479 10.564C37.4479 12.1693 36.9626 13.3267 35.9919 14.036C35.0213 14.7453 33.3599 15.1 31.0079 15.1C30.4666 15.1 29.9626 15.0813 29.4959 15.044C29.0293 15.0067 28.5999 14.9507 28.2079 14.876C28.1333 15.0253 28.0959 15.2027 28.0959 15.408C28.0959 15.7067 28.1893 15.9587 28.3759 16.164C28.5813 16.3507 28.9266 16.444 29.4119 16.444H33.4439C35.1613 16.444 36.4399 16.7147 37.2799 17.256C38.1386 17.7973 38.5679 18.8427 38.5679 20.392C38.5679 21.9227 37.9706 23.0893 36.7759 23.892C35.5813 24.6947 33.5653 25.096 30.7279 25.096C28.3946 25.096 26.6959 24.7787 25.6319 24.144C24.5679 23.528 24.0359 22.6227 24.0359 21.428C24.0359 20.7747 24.2133 20.2333 24.5679 19.804C24.9226 19.356 25.4079 19.0573 26.0239 18.908V18.824ZM31.0079 12.104C31.8853 12.104 32.5013 12.0013 32.8559 11.796C33.2106 11.572 33.3879 11.18 33.3879 10.62C33.3879 10.06 33.2106 9.64933 32.8559 9.388C32.5013 9.12667 31.8853 8.996 31.0079 8.996C30.1119 8.996 29.4866 9.12667 29.1319 9.388C28.7773 9.64933 28.5999 10.06 28.5999 10.62C28.5999 11.18 28.7773 11.572 29.1319 11.796C29.4866 12.0013 30.1119 12.104 31.0079 12.104ZM31.2599 21.792C32.2493 21.792 32.9773 21.7453 33.4439 21.652C33.9106 21.5587 34.2186 21.4187 34.3679 21.232C34.5173 21.0453 34.5919 20.812 34.5919 20.532C34.5919 20.2147 34.4986 19.9627 34.3119 19.776C34.1253 19.5707 33.8453 19.468 33.4719 19.468H29.1879C28.8146 19.468 28.5346 19.5707 28.3479 19.776C28.1613 19.9627 28.0679 20.2147 28.0679 20.532C28.0679 20.812 28.1426 21.0453 28.2919 21.232C28.4599 21.4187 28.7679 21.5587 29.2159 21.652C29.6826 21.7453 30.3639 21.792 31.2599 21.792ZM45.41 19.748H40.93V6.112H45.186L45.41 8.604H45.494C45.7553 7.764 46.222 7.12 46.894 6.672C47.566 6.20533 48.4993 5.972 49.694 5.972C51.318 5.972 52.5127 6.42933 53.278 7.344C54.062 8.25867 54.454 9.84533 54.454 12.104V19.748H49.974L49.946 12.972C49.946 11.9267 49.7873 11.18 49.47 10.732C49.1527 10.284 48.5553 10.06 47.678 10.06C46.8567 10.06 46.278 10.2653 45.942 10.676C45.606 11.068 45.4287 11.7493 45.41 12.72V19.748ZM62.0077 20C60.2903 20 59.0677 19.5427 58.3397 18.628C57.6117 17.7133 57.2477 16.4067 57.2477 14.708V6.112H61.7277L61.7557 13.616C61.7557 14.456 61.905 15.0533 62.2037 15.408C62.5023 15.744 63.109 15.912 64.0237 15.912C64.901 15.912 65.489 15.7627 65.7877 15.464C66.105 15.1467 66.273 14.6147 66.2917 13.868V6.112H70.7717V19.748H66.5157L66.2917 18.208H66.2077C65.965 18.7493 65.4703 19.188 64.7237 19.524C63.977 19.8413 63.0717 20 62.0077 20ZM78.6053 24.956H74.1253V6.112H78.3813L78.6053 8.044V8.212H78.6613C78.9786 7.44667 79.4266 6.88667 80.0053 6.532C80.6026 6.15867 81.4613 5.972 82.5813 5.972C84.392 5.972 85.7173 6.504 86.5573 7.568C87.416 8.61333 87.8546 10.2 87.8733 12.328C87.9106 14.2133 87.7146 15.7253 87.2853 16.864C86.8746 17.984 86.2306 18.7867 85.3533 19.272C84.476 19.7573 83.356 20 81.9933 20C81.284 20 80.64 19.9347 80.0613 19.804C79.5013 19.6733 79.0346 19.5147 78.6613 19.328L78.6053 19.356V24.956ZM81.1253 9.78C80.3786 9.78 79.772 10.0133 79.3053 10.48C78.8386 10.928 78.6053 11.7027 78.6053 12.804V15.744C79.296 16.024 80.108 16.164 81.0413 16.164C81.9186 16.164 82.544 15.9587 82.9173 15.548C83.3093 15.1187 83.5053 14.2693 83.5053 13C83.5053 11.8987 83.356 11.0867 83.0573 10.564C82.7586 10.0413 82.1146 9.78 81.1253 9.78Z" fill="black"/>
</svg>
