<svg width="50" height="50" viewBox="0 0 50 50" fill="none" xmlns="http://www.w3.org/2000/svg">
<path d="M39.2272 18.3099C40.9446 16.9014 42.0375 15.7277 42.5059 14.7887C41.491 15.2582 40.281 15.6103 38.8759 15.8451C40.281 14.8279 41.2178 13.5759 41.6862 12.0892C40.1249 12.9499 38.6807 13.4977 37.3536 13.7324C36.4169 12.6369 35.2069 11.9914 33.7237 11.7958C32.2404 11.6002 30.8548 11.7958 29.5667 12.3826C28.2787 12.9695 27.2443 13.9476 26.4637 15.3169C25.6831 16.6862 25.4879 18.1925 25.8782 19.8357C20.6479 19.5227 16.0422 17.2144 12.0609 12.9108C11.2022 14.4757 11.0265 16.1776 11.534 18.0164C12.0414 19.8552 12.8806 21.1268 14.0515 21.831C13.1928 21.7527 12.2561 21.4789 11.2412 21.0094C11.3193 24.374 13.0367 26.6041 16.3934 27.6995C15.4567 27.9343 14.5199 27.9734 13.5831 27.8169C14.5199 30.6338 16.5886 32.1987 19.7892 32.5117C18.6183 33.5289 17.096 34.2919 15.2225 34.8005C13.3489 35.3091 11.5925 35.446 9.95316 35.2113C13.466 37.4022 17.057 38.4194 20.726 38.2629C26.1905 38.0282 30.6206 36.0915 34.0164 32.4531C37.4122 28.8146 39.1491 24.1002 39.2272 18.3099ZM44.9649 0C46.37 0 47.5605 0.489045 48.5363 1.46714C49.5121 2.44523 50 3.59937 50 4.92958V45.0704C50 46.4006 49.5121 47.5548 48.5363 48.5329C47.5605 49.511 46.37 50 44.9649 50H5.03513C3.62998 50 2.4395 49.511 1.4637 48.5329C0.4879 47.5548 0 46.4006 0 45.0704V4.92958C0 3.59937 0.4879 2.44523 1.4637 1.46714C2.4395 0.489045 3.62998 0 5.03513 0H44.9649Z" fill="black"/>
</svg>
