<svg width="50" height="50" viewBox="0 0 50 50" fill="none" xmlns="http://www.w3.org/2000/svg">
<path d="M42.1951 37.25C43.1707 35.5 43.9024 33.5 43.9024 31.25C43.9024 25 39.0244 20 32.9268 20C26.8293 20 21.9512 25 21.9512 31.25C21.9512 37.5 26.8293 42.5 32.9268 42.5C35.122 42.5 37.0732 41.75 38.7805 40.75L46.5854 48.75L50 45.25L42.1951 37.25ZM32.9268 37.5C29.5122 37.5 26.8293 34.75 26.8293 31.25C26.8293 27.75 29.5122 25 32.9268 25C36.3415 25 39.0244 27.75 39.0244 31.25C39.0244 34.75 36.3415 37.5 32.9268 37.5ZM24.3902 45V50C10.9268 50 0 38.8 0 25C0 11.2 10.9268 0 24.3902 0C36.1951 0 46.0244 8.6 48.2927 20H43.2439C42.4832 16.9796 41.0437 14.1835 39.0406 11.835C37.0374 9.48662 34.5261 7.65104 31.7073 6.475V7.5C31.7073 10.25 29.5122 12.5 26.8293 12.5H21.9512V17.5C21.9512 18.875 20.8537 20 19.5122 20H14.6341V25H19.5122V32.5H17.0732L5.39024 20.525C5.07317 21.975 4.87805 23.45 4.87805 25C4.87805 36.025 13.6341 45 24.3902 45Z" fill="black"/>
</svg>
